<svg width="24" height="24" viewBox="0 0 24 24" fill="none" xmlns="http://www.w3.org/2000/svg">
<path fill-rule="evenodd" clip-rule="evenodd" d="M19.4142 8.58579C19.0391 8.21071 18.5304 8 18 8H17V6C17 5.34339 16.8707 4.69321 16.6194 4.08658C16.3681 3.47995 15.9998 2.92876 15.5355 2.46447C15.0712 2.00017 14.52 1.63188 13.9134 1.3806C13.3068 1.12933 12.6566 1 12 1C10.6739 1 9.40215 1.52678 8.46447 2.46447C7.52678 3.40215 7 4.67392 7 6H9C9 5.20435 9.31607 4.44129 9.87868 3.87868C10.4413 3.31607 11.2044 3 12 3C12.7956 3 13.5587 3.31607 14.1213 3.87868C14.6839 4.44129 15 5.20435 15 6V8H6C5.46957 8 4.96086 8.21071 4.58579 8.58579C4.21071 8.96086 4 9.46957 4 10V20C4 20.5304 4.21071 21.0391 4.58579 21.4142C4.96086 21.7893 5.46957 22 6 22H18C18.5304 22 19.0391 21.7893 19.4142 21.4142C19.7893 21.0391 20 20.5304 20 20V10C20 9.46957 19.7893 8.96086 19.4142 8.58579ZM11.2308 10.6667L8 18.6667H9.47692L10.2615 16.6238H13.7385L14.5231 18.6667H16L12.7692 10.6667H11.2308ZM12.0308 12.1524L13.2923 15.4667H10.7077L11.9692 12.1524H12.0308Z" fill="#FFEC3D"/>
</svg>
