<svg width="19" height="18" viewBox="0 0 19 18" fill="none" xmlns="http://www.w3.org/2000/svg">
<path d="M9.5 16.5C8.4625 16.5 7.4875 16.303 6.575 15.909C5.6625 15.515 4.86875 14.9808 4.19375 14.3063C3.51875 13.6313 2.9845 12.8375 2.591 11.925C2.1975 11.0125 2.0005 10.0375 2 9C2 7.9625 2.197 6.9875 2.591 6.075C2.985 5.1625 3.51925 4.36875 4.19375 3.69375C4.86875 3.01875 5.6625 2.4845 6.575 2.091C7.4875 1.6975 8.4625 1.5005 9.5 1.5C10.5375 1.5 11.5125 1.697 12.425 2.091C13.3375 2.485 14.1313 3.01925 14.8063 3.69375C15.4813 4.36875 16.0157 5.1625 16.4097 6.075C16.8037 6.9875 17.0005 7.9625 17 9C17 10.0375 16.803 11.0125 16.409 11.925C16.015 12.8375 15.4808 13.6313 14.8063 14.3063C14.1313 14.9813 13.3375 15.5157 12.425 15.9097C11.5125 16.3037 10.5375 16.5005 9.5 16.5ZM10.25 14.9437C11.7375 14.7562 12.9845 14.103 13.991 12.984C14.9975 11.865 15.5005 10.537 15.5 9C15.5 7.4625 14.9967 6.13425 13.9902 5.01525C12.9837 3.89625 11.737 3.24325 10.25 3.05625V14.9437Z" fill="#FFEC3D"/>
</svg>
