<svg width="19" height="18" viewBox="0 0 19 18" fill="none" xmlns="http://www.w3.org/2000/svg">
<path d="M8.75 12.75H10.25V8.25H8.75V12.75ZM9.5 6.75C9.7125 6.75 9.89075 6.678 10.0348 6.534C10.1788 6.39 10.2505 6.212 10.25 6C10.25 5.7875 10.178 5.60925 10.034 5.46525C9.89 5.32125 9.712 5.2495 9.5 5.25C9.2875 5.25 9.10925 5.322 8.96525 5.466C8.82125 5.61 8.7495 5.788 8.75 6C8.75 6.2125 8.822 6.39075 8.966 6.53475C9.11 6.67875 9.288 6.7505 9.5 6.75ZM9.5 16.5C8.4625 16.5 7.4875 16.303 6.575 15.909C5.6625 15.515 4.86875 14.9808 4.19375 14.3063C3.51875 13.6313 2.9845 12.8375 2.591 11.925C2.1975 11.0125 2.0005 10.0375 2 9C2 7.9625 2.197 6.9875 2.591 6.075C2.985 5.1625 3.51925 4.36875 4.19375 3.69375C4.86875 3.01875 5.6625 2.4845 6.575 2.091C7.4875 1.6975 8.4625 1.5005 9.5 1.5C10.5375 1.5 11.5125 1.697 12.425 2.091C13.3375 2.485 14.1313 3.01925 14.8063 3.69375C15.4813 4.36875 16.0157 5.1625 16.4097 6.075C16.8037 6.9875 17.0005 7.9625 17 9C17 10.0375 16.803 11.0125 16.409 11.925C16.015 12.8375 15.4808 13.6313 14.8063 14.3063C14.1313 14.9813 13.3375 15.5157 12.425 15.9097C11.5125 16.3037 10.5375 16.5005 9.5 16.5Z" fill="#F8F8F8"/>
</svg>
