<svg width="19" height="18" viewBox="0 0 19 18" fill="none" xmlns="http://www.w3.org/2000/svg">
<path fill-rule="evenodd" clip-rule="evenodd" d="M15.0607 6.43934C14.7794 6.15804 14.3978 6 14 6H13.25V4.5C13.25 4.00754 13.153 3.51991 12.9645 3.06494C12.7761 2.60997 12.4999 2.19657 12.1517 1.84835C11.8034 1.50013 11.39 1.22391 10.9351 1.03545C10.4801 0.846997 9.99246 0.75 9.5 0.75C8.50544 0.75 7.55161 1.14509 6.84835 1.84835C6.14509 2.55161 5.75 3.50544 5.75 4.5H7.25C7.25 3.90326 7.48705 3.33097 7.90901 2.90901C8.33097 2.48705 8.90326 2.25 9.5 2.25C10.0967 2.25 10.669 2.48705 11.091 2.90901C11.5129 3.33097 11.75 3.90326 11.75 4.5V6H5C4.60218 6 4.22064 6.15804 3.93934 6.43934C3.65804 6.72064 3.5 7.10218 3.5 7.5V15C3.5 15.3978 3.65804 15.7794 3.93934 16.0607C4.22064 16.342 4.60218 16.5 5 16.5H14C14.3978 16.5 14.7794 16.342 15.0607 16.0607C15.342 15.7794 15.5 15.3978 15.5 15V7.5C15.5 7.10218 15.342 6.72064 15.0607 6.43934ZM8.92308 8L6.5 14H7.60769L8.19615 12.4679H10.8038L11.3923 14H12.5L10.0769 8H8.92308ZM9.52308 9.11429L10.4692 11.6H8.53077L9.47692 9.11429H9.52308Z" fill="#F8F8F8"/>
</svg>
